<svg width="517" height="157" viewBox="0 0 517 157" fill="none" xmlns="http://www.w3.org/2000/svg">
<path d="M136.892 3.74999V153H96.097V21.859H108.634L31.024 107.628L30.825 94.693H160.772V125.14H0.776V96.086L84.754 3.74999H136.892ZM259.541 156.184C242.56 156.184 227.768 153 215.164 146.632C202.561 140.131 192.81 131.044 185.911 119.369C179.145 107.694 175.762 94.0297 175.762 78.375C175.762 62.7203 179.145 49.0557 185.911 37.381C192.81 25.7063 202.561 16.685 215.164 10.317C227.768 3.81633 242.56 0.565994 259.541 0.565994C276.39 0.565994 291.05 3.81633 303.52 10.317C316.124 16.685 325.875 25.7063 332.773 37.381C339.672 49.0557 343.121 62.7203 343.121 78.375C343.121 94.0297 339.672 107.694 332.773 119.369C325.875 131.044 316.124 140.131 303.52 146.632C291.05 153 276.39 156.184 259.541 156.184ZM259.541 122.752C272.941 122.752 283.355 118.905 290.784 111.21C298.214 103.383 301.928 92.4377 301.928 78.375C301.928 64.1797 298.214 53.2347 290.784 45.54C283.355 37.8453 272.941 33.998 259.541 33.998C246.142 33.998 235.661 37.8453 228.099 45.54C220.537 53.2347 216.756 64.1797 216.756 78.375C216.756 92.4377 220.537 103.383 228.099 111.21C235.661 118.905 246.142 122.752 259.541 122.752ZM492.332 3.74999V153H451.537V21.859H464.074L386.464 107.628L386.265 94.693H516.212V125.14H356.216V96.086L440.194 3.74999H492.332Z" fill="#1D1D1D"/>
</svg>
