<svg width="25" height="24" viewBox="0 0 25 24" fill="none" xmlns="http://www.w3.org/2000/svg">
<path d="M12.7412 22C14.719 22 16.6524 21.4135 18.2969 20.3147C19.9414 19.2159 21.2231 17.6541 21.98 15.8268C22.7369 13.9996 22.9349 11.9889 22.5491 10.0491C22.1632 8.10929 21.2108 6.32746 19.8123 4.92894C18.4138 3.53041 16.6319 2.578 14.6921 2.19215C12.7523 1.8063 10.7416 2.00433 8.91438 2.76121C7.08711 3.51809 5.52533 4.79981 4.42651 6.4443C3.3277 8.08879 2.74121 10.0222 2.74121 12C2.74408 14.6513 3.79857 17.1932 5.67331 19.0679C7.54805 20.9426 10.0899 21.9971 12.7412 22ZM12.7412 4.5C14.2246 4.5 15.6746 4.93987 16.908 5.76398C18.1414 6.58809 19.1026 7.75943 19.6703 9.12988C20.238 10.5003 20.3865 12.0083 20.0971 13.4632C19.8077 14.918 19.0934 16.2544 18.0445 17.3033C16.9956 18.3522 15.6592 19.0665 14.2044 19.3559C12.7495 19.6453 11.2415 19.4968 9.87108 18.9291C8.50064 18.3614 7.3293 17.4001 6.50519 16.1668C5.68108 14.9334 5.24121 13.4834 5.24121 12C5.24364 10.0116 6.03459 8.10538 7.44059 6.69938C8.84659 5.29338 10.7528 4.50243 12.7412 4.5ZM9.50038 12.8842L7.73288 11.1158L11.2679 7.58334C11.4613 7.38982 11.691 7.23632 11.9438 7.13158C12.1966 7.02685 12.4676 6.97295 12.7412 6.97295C13.0148 6.97295 13.2858 7.02685 13.5386 7.13158C13.7914 7.23632 14.0211 7.38982 14.2145 7.58334L17.7495 11.1183L15.982 12.8867L13.9912 10.8925V17H11.4912V10.8925L9.50038 12.8842Z" fill="#303230"/>
</svg>
