<svg width="25" height="24" viewBox="0 0 25 24" fill="none" xmlns="http://www.w3.org/2000/svg">
<path d="M10.2412 15.3333H18.5745V17.8333H10.2412V15.3333ZM22.7412 4.91667V22H2.74121V4.91667C2.74121 3.30833 4.04954 2 5.65788 2H19.8245C21.4329 2 22.7412 3.30833 22.7412 4.91667ZM20.2412 4.91667C20.2412 4.68667 20.0545 4.5 19.8245 4.5H5.65788C5.42788 4.5 5.24121 4.68667 5.24121 4.91667V19.5H20.2412V4.91667ZM15.902 7.24417L14.4079 8.70417L12.9137 7.24417C12.5879 6.91833 12.0604 6.91833 11.7354 7.24417L9.42704 9.5H11.0745V13.6667H13.5745V9.5H15.2412V13.6667H17.7412V9.5H19.3887L17.0804 7.24417C16.7545 6.91833 16.227 6.91833 15.902 7.24417Z" fill="#303230"/>
</svg>
