<svg width="25" height="24" viewBox="0 0 25 24" fill="none" xmlns="http://www.w3.org/2000/svg">
<path fill-rule="evenodd" clip-rule="evenodd" d="M16.0725 6.22968L16.0728 6.22983L17.7936 7.22325L12.5658 10.4435L7.36279 7.41143L9.40962 6.22983L9.40987 6.22968L12.7412 4.30612L16.0725 6.22968ZM17.502 3.75408L20.5598 5.51933L20.5731 5.51119L20.5881 5.53568L22.263 6.50256L22.2627 12L22.263 17.4974L17.502 20.2459L12.7412 22.9948L7.98041 20.2459L3.21936 17.4974L3.21964 12L3.21936 6.50256L7.98041 3.75408L12.7412 1.00513L17.502 3.75408ZM14.1618 12.8178L19.4042 9.58864L19.4041 11.9998V12.0001L19.4043 15.8469L16.0728 17.7701L16.0725 17.7703L14.1621 18.8734L14.1618 12.8178ZM11.3032 13.0163L6.0782 9.97148L6.0783 11.9998V12.0001L6.07811 15.8469L9.40962 17.7701L9.40987 17.7703L11.3034 18.8637L11.3032 13.0163Z" fill="#303230"/>
</svg>
