<svg width="25" height="24" viewBox="0 0 25 24" fill="none" xmlns="http://www.w3.org/2000/svg">
<path fill-rule="evenodd" clip-rule="evenodd" d="M11.6204 0.750488L12.7635 1.42245C15.6248 3.10444 16.2856 5.78681 16.1786 8.06033C16.1345 8.99576 15.9617 9.89088 15.7554 10.6651C15.9281 10.5613 16.1006 10.4486 16.2701 10.3306C16.703 10.0289 17.0849 9.71393 17.36 9.4724C17.4966 9.35246 17.6047 9.25262 17.6771 9.18429C17.7132 9.15018 17.7403 9.12406 17.7574 9.10737L17.7755 9.08966L17.7779 9.08727L17.7787 9.08648L19.0038 7.86136L19.7796 9.41178L18.6618 9.97115C19.7796 9.41178 19.7794 9.41132 19.7796 9.41178L19.7821 9.41661L19.7862 9.42499L19.7995 9.45224C19.8106 9.47499 19.8259 9.50685 19.845 9.54727C19.8831 9.62808 19.9362 9.74333 20.0001 9.88865C20.1275 10.1789 20.2987 10.5914 20.4786 11.0911C20.8352 12.0818 21.241 13.4555 21.3924 14.9188C21.5425 16.3689 21.4555 18.0285 20.6997 19.4966C19.9149 21.0211 18.4911 22.1796 16.3041 22.7143L15.7708 22.8447L15.314 22.5403C15.2275 22.4826 15.1135 22.4151 14.9789 22.3354C14.148 21.8436 12.5361 20.8894 11.8152 18.9476C11.7746 19.0109 11.7329 19.0817 11.6901 19.1608C11.3223 19.8409 11.0921 20.7999 11.0068 21.6281L10.8912 22.7501H9.76339C7.14038 22.7501 5.11172 21.1809 4.35423 18.7658C3.61549 16.4104 4.11589 13.4121 6.01687 10.3636C7.93812 7.28266 9.19346 5.16427 9.96613 3.82068C10.3524 3.14896 10.6179 2.67123 10.7855 2.36401C10.8692 2.21042 10.9285 2.0995 10.9662 2.02833C10.985 1.99274 10.9984 1.9671 11.0068 1.95104L11.0155 1.93408L11.017 1.93122L11.6204 0.750488ZM12.5256 4.37889C12.4107 4.58239 12.2803 4.81135 12.1333 5.067C11.3437 6.4401 10.0727 8.58421 8.13821 11.6865C6.49865 14.3157 6.28088 16.5549 6.73965 18.0176C7.07048 19.0724 7.76564 19.8031 8.72746 20.1007C8.88801 19.3841 9.13385 18.6321 9.49109 17.9715C10.062 16.9158 11.1474 15.7363 12.8696 15.9532L13.8928 16.0821L13.9607 17.1112C14.0732 18.8176 15.1142 19.4653 16.172 20.1234C16.1833 20.1305 16.1947 20.1376 16.206 20.1446C17.4466 19.7366 18.1069 19.0713 18.4769 18.3524C18.9225 17.4868 19.0301 16.3789 18.9057 15.1761C18.7874 14.0332 18.4708 12.9134 18.1638 12.0431C18.0171 12.1547 17.8617 12.2685 17.6994 12.3816C17.1738 12.7479 16.5435 13.1293 15.8753 13.3975C15.2217 13.6599 14.4197 13.8596 13.6002 13.7223L12.0611 13.4643L12.6515 12.0122C12.9378 11.308 13.5995 9.68068 13.6813 7.94274C13.7428 6.6375 13.4814 5.37471 12.5256 4.37889Z" fill="#303230"/>
</svg>
