<svg width="25" height="24" viewBox="0 0 25 24" fill="none" xmlns="http://www.w3.org/2000/svg">
<g opacity="0.5">
<path fill-rule="evenodd" clip-rule="evenodd" d="M12.7412 5.45455C9.12626 5.45455 6.19576 8.38505 6.19576 12C6.19576 15.615 9.12626 18.5455 12.7412 18.5455C16.3562 18.5455 19.2867 15.615 19.2867 12C19.2867 8.38505 16.3562 5.45455 12.7412 5.45455ZM4.74121 12C4.74121 7.58172 8.32293 4 12.7412 4C17.1595 4 20.7412 7.58172 20.7412 12C20.7412 16.4183 17.1595 20 12.7412 20C8.32293 20 4.74121 16.4183 4.74121 12Z" fill="#748579"/>
<path fill-rule="evenodd" clip-rule="evenodd" d="M12.7412 11C13.2935 11 13.7412 11.3731 13.7412 11.8333V15.1667C13.7412 15.6269 13.2935 16 12.7412 16C12.1889 16 11.7412 15.6269 11.7412 15.1667V11.8333C11.7412 11.3731 12.1889 11 12.7412 11Z" fill="#748579"/>
<path fill-rule="evenodd" clip-rule="evenodd" d="M11.7412 9C11.7412 8.44772 12.1874 8 12.7378 8H12.7447C13.295 8 13.7412 8.44772 13.7412 9C13.7412 9.55228 13.295 10 12.7447 10H12.7378C12.1874 10 11.7412 9.55228 11.7412 9Z" fill="#748579"/>
</g>
</svg>
