<svg width="25" height="24" viewBox="0 0 25 24" fill="none" xmlns="http://www.w3.org/2000/svg">
<path fill-rule="evenodd" clip-rule="evenodd" d="M20.6946 9.15804V1.13647H18.0946V4.15198C17.9149 4.02937 17.7311 3.91309 17.5438 3.80332C16.3674 3.11409 15.0481 2.68123 13.6724 2.54574C11.4851 2.33031 9.29076 2.87996 7.4633 4.10103C5.63583 5.32211 4.28829 7.13905 3.65028 9.24229C3.01227 11.3455 3.12327 13.6049 3.96436 15.6355C4.80545 17.6661 6.32459 19.3422 8.26294 20.3782C10.2013 21.4143 12.4389 21.7462 14.5946 21.3175C16.7502 20.8887 18.6905 19.7257 20.0848 18.0267C20.9618 16.9582 21.5886 15.7192 21.9331 14.4C22.1363 13.6217 22.2412 12.8155 22.2412 12H22.0954H19.8412H19.6954C19.6954 13.6089 19.1375 15.168 18.1168 16.4117C17.0962 17.6553 15.6759 18.5066 14.0979 18.8205C12.5199 19.1344 10.882 18.8914 9.46305 18.133C8.04414 17.3746 6.9321 16.1476 6.31641 14.6612C5.70072 13.1748 5.61947 11.5209 6.0865 9.98131C6.55353 8.44171 7.53996 7.11167 8.87769 6.21782C10.2154 5.32398 11.8217 4.92163 13.4228 5.07932C14.7613 5.21115 16.027 5.72755 17.0708 6.55804L13.0511 6.55803V9.15803L20.6946 9.15804Z" fill="#303230"/>
</svg>
