<svg width="24" height="24" viewBox="0 0 24 24" fill="none" xmlns="http://www.w3.org/2000/svg">
<mask id="path-1-inside-1_1655_3108" fill="white">
<path d="M21.5 12C21.5 14.1979 20.7379 16.3278 19.3436 18.0267C17.9493 19.7257 16.009 20.8887 13.8534 21.3175C11.6977 21.7462 9.46008 21.4143 7.52173 20.3783C5.58338 19.3422 4.06424 17.6661 3.22314 15.6355C2.38205 13.6049 2.27106 11.3455 2.90907 9.2423C3.54708 7.13906 4.89462 5.32211 6.72208 4.10104C8.54955 2.87997 10.7439 2.33032 12.9312 2.54574C15.1185 2.76117 17.1634 3.72835 18.7175 5.28248L16.9173 7.08267C15.7797 5.94502 14.2828 5.23703 12.6816 5.07933C11.0805 4.92163 9.47421 5.32399 8.13648 6.21783C6.79874 7.11168 5.81232 8.44171 5.34529 9.98132C4.87825 11.5209 4.95951 13.1748 5.5752 14.6612C6.19089 16.1477 7.30293 17.3746 8.72183 18.133C10.1407 18.8914 11.7787 19.1344 13.3567 18.8205C14.9347 18.5067 16.355 17.6554 17.3756 16.4117C18.3963 15.168 18.9542 13.6089 18.9542 12H21.5Z"/>
</mask>
<path d="M21.5 12C21.5 14.1979 20.7379 16.3278 19.3436 18.0267C17.9493 19.7257 16.009 20.8887 13.8534 21.3175C11.6977 21.7462 9.46008 21.4143 7.52173 20.3783C5.58338 19.3422 4.06424 17.6661 3.22314 15.6355C2.38205 13.6049 2.27106 11.3455 2.90907 9.2423C3.54708 7.13906 4.89462 5.32211 6.72208 4.10104C8.54955 2.87997 10.7439 2.33032 12.9312 2.54574C15.1185 2.76117 17.1634 3.72835 18.7175 5.28248L16.9173 7.08267C15.7797 5.94502 14.2828 5.23703 12.6816 5.07933C11.0805 4.92163 9.47421 5.32399 8.13648 6.21783C6.79874 7.11168 5.81232 8.44171 5.34529 9.98132C4.87825 11.5209 4.95951 13.1748 5.5752 14.6612C6.19089 16.1477 7.30293 17.3746 8.72183 18.133C10.1407 18.8914 11.7787 19.1344 13.3567 18.8205C14.9347 18.5067 16.355 17.6554 17.3756 16.4117C18.3963 15.168 18.9542 13.6089 18.9542 12H21.5Z" stroke="#217241" stroke-width="4.8" mask="url(#path-1-inside-1_1655_3108)"/>
</svg>
