<svg width="115" height="64" viewBox="0 0 115 64" fill="none" xmlns="http://www.w3.org/2000/svg">
<path fill-rule="evenodd" clip-rule="evenodd" d="M82.8082 34.6247C83.0151 34.3834 83.3175 34.2444 83.6359 34.2444H102.521L99.637 30.8448H80.6311L74.6772 23.585H93.4774L92.2234 22.107H73.7245L67.5708 14.4392H85.7176L84.5167 13.0239H66.3415L59.9438 5.02841L77.7456 5.04349L75.3134 2.17682H56.0171L33.4361 28.9753C33.2289 29.2214 32.9233 29.3632 32.6014 29.3632H12.2795L14.7051 32.2667L35.2637 32.664L40.6753 39.5342H20.7764L21.8685 40.8415H41.7229L48.1133 48.5529H28.3106L29.4024 49.8598H49.0549L55.2521 57.9337H36.1473L39.3967 61.8232H59.4644L82.8082 34.6247ZM96.3366 23.585L95.0824 22.107H99.1241L93.0029 14.4392H88.576L87.3751 13.0239H91.7928L85.5407 5.05009L80.6055 5.04591L76.6503 0.384754C76.4434 0.140583 76.1391 0 75.8185 0H55.5094C55.1879 0 54.8823 0.141853 54.675 0.387619L32.0937 27.1864H9.9508C9.52772 27.1864 9.14262 27.4309 8.96317 27.8134C8.78372 28.1959 8.84247 28.6476 9.11357 28.9718L11.8195 32.2109L9.51416 32.1664L15.5804 39.5342H17.9374L19.0295 40.8415H16.4795L22.6942 48.5529H25.4717L26.5634 49.8598H23.626L30.2226 57.9337H33.3083L38.0492 63.6086C38.2561 63.8565 38.5629 64 38.8864 64H59.9657C60.284 64 60.5864 63.8607 60.7937 63.6197L84.1375 36.4212H104.875C105.299 36.4212 105.686 36.1751 105.865 35.7907C106.043 35.4059 105.983 34.9527 105.708 34.6295L102.497 30.8448H106.098L100.353 23.585H96.3366ZM57.98 5.89994L79.256 32.5416L74.019 38.2926L57.7836 17.9899L46.9286 31.0291L62.9335 50.753L57.6961 57.0268L37.0093 30.9733L57.98 5.89994ZM14.5499 40.8415H7.00488L13.3113 48.5529H20.5999L14.5499 40.8415ZM14.2715 49.8598H21.63L28.0628 57.9337H20.7742L14.2715 49.8598ZM13.4474 39.5342L7.46292 32.1421L0 32L5.97909 39.5342H13.4474ZM107.994 22.107L101.809 14.4392H94.7524L100.893 22.107H107.994ZM115 30.8448L108.981 23.3874H101.972L107.962 30.8448H115ZM100.532 12.9534H93.6511L87.3086 5.0501H94.2482L100.532 12.9534Z" fill="#2B372F"/>
</svg>
