<svg width="140" height="20" viewBox="0 0 140 20" fill="none" xmlns="http://www.w3.org/2000/svg">
<path d="M0.5 14.74V0.459991H11.8V14.74H8.78V2.97999H3.52V14.74H0.5Z" fill="#1A271E"/>
<path d="M19.8623 3.61999C21.369 3.61999 22.5623 4.05332 23.4423 4.91999C24.3223 5.77333 24.7623 6.99333 24.7623 8.57999V10.02H17.7223C17.749 10.86 17.9957 11.52 18.4623 12C18.9423 12.48 19.6023 12.72 20.4423 12.72C21.1357 12.72 21.769 12.6533 22.3423 12.52C22.929 12.3733 23.529 12.1533 24.1423 11.86V14.16C23.5957 14.4267 23.029 14.62 22.4423 14.74C21.8557 14.8733 21.1423 14.94 20.3023 14.94C19.209 14.94 18.2423 14.74 17.4023 14.34C16.5623 13.9267 15.9023 13.3133 15.4223 12.5C14.9423 11.6733 14.7023 10.6267 14.7023 9.35999C14.7023 8.09333 14.9157 7.03333 15.3423 6.17999C15.7823 5.32666 16.389 4.68666 17.1623 4.25999C17.9357 3.83332 18.8357 3.61999 19.8623 3.61999ZM19.8823 5.73999C19.2957 5.73999 18.8157 5.92666 18.4423 6.29999C18.069 6.67333 17.849 7.25333 17.7823 8.03999H21.9623C21.949 7.38666 21.769 6.83999 21.4223 6.39999C21.089 5.95999 20.5757 5.73999 19.8823 5.73999Z" fill="#1A271E"/>
<path d="M33.4588 3.61999C34.6854 3.61999 35.6788 4.09999 36.4388 5.05999C37.1987 6.00666 37.5788 7.40666 37.5788 9.25999C37.5788 11.1267 37.1854 12.54 36.3988 13.5C35.6121 14.46 34.6054 14.94 33.3787 14.94C32.5921 14.94 31.9654 14.8 31.4987 14.52C31.0321 14.2267 30.6521 13.9 30.3587 13.54H30.1987C30.3054 14.1 30.3587 14.6333 30.3587 15.14V19.54H27.3787V3.81999H29.7987L30.2188 5.23999H30.3587C30.6521 4.79999 31.0454 4.41999 31.5387 4.09999C32.0321 3.77999 32.6721 3.61999 33.4588 3.61999ZM32.4988 5.99999C31.7254 5.99999 31.1787 6.24666 30.8587 6.73999C30.5387 7.21999 30.3721 7.94666 30.3587 8.91999V9.23999C30.3587 10.2933 30.5121 11.1067 30.8188 11.68C31.1388 12.24 31.7121 12.52 32.5387 12.52C33.2188 12.52 33.7188 12.24 34.0387 11.68C34.3721 11.1067 34.5387 10.2867 34.5387 9.21999C34.5387 7.07333 33.8587 5.99999 32.4988 5.99999Z" fill="#1A271E"/>
<path d="M44.735 3.61999C46.2417 3.61999 47.435 4.05332 48.315 4.91999C49.195 5.77333 49.635 6.99333 49.635 8.57999V10.02H42.595C42.6217 10.86 42.8683 11.52 43.335 12C43.815 12.48 44.475 12.72 45.315 12.72C46.0083 12.72 46.6417 12.6533 47.215 12.52C47.8017 12.3733 48.4017 12.1533 49.015 11.86V14.16C48.4683 14.4267 47.9017 14.62 47.315 14.74C46.7283 14.8733 46.015 14.94 45.175 14.94C44.0817 14.94 43.115 14.74 42.275 14.34C41.435 13.9267 40.775 13.3133 40.295 12.5C39.815 11.6733 39.575 10.6267 39.575 9.35999C39.575 8.09333 39.7883 7.03333 40.215 6.17999C40.655 5.32666 41.2617 4.68666 42.035 4.25999C42.8083 3.83332 43.7083 3.61999 44.735 3.61999ZM44.755 5.73999C44.1683 5.73999 43.6883 5.92666 43.315 6.29999C42.9417 6.67333 42.7217 7.25333 42.655 8.03999H46.835C46.8217 7.38666 46.6417 6.83999 46.295 6.39999C45.9617 5.95999 45.4483 5.73999 44.755 5.73999Z" fill="#1A271E"/>
<path d="M61.9314 6.67999C61.9314 7.26666 61.7447 7.76666 61.3714 8.17999C61.0114 8.59333 60.4714 8.85999 59.7514 8.97999V9.05999C60.5114 9.15333 61.1181 9.41999 61.5714 9.85999C62.0381 10.2867 62.2714 10.8267 62.2714 11.48C62.2714 12.1067 62.1047 12.6667 61.7714 13.16C61.4514 13.6533 60.9381 14.04 60.2314 14.32C59.5247 14.6 58.5981 14.74 57.4514 14.74H52.2514V3.81999H57.4514C58.3047 3.81999 59.0647 3.91333 59.7314 4.09999C60.4114 4.27332 60.9447 4.57332 61.3314 4.99999C61.7314 5.41333 61.9314 5.97332 61.9314 6.67999ZM58.9114 6.91999C58.9114 6.25332 58.3847 5.91999 57.3314 5.91999H55.2314V8.07999H56.9914C57.6181 8.07999 58.0914 7.99333 58.4114 7.81999C58.7447 7.63333 58.9114 7.33332 58.9114 6.91999ZM59.1914 11.32C59.1914 10.8933 59.0181 10.5867 58.6714 10.4C58.3381 10.2 57.8447 10.1 57.1914 10.1H55.2314V12.68H57.2514C57.8114 12.68 58.2714 12.58 58.6314 12.38C59.0047 12.1667 59.1914 11.8133 59.1914 11.32Z" fill="#1A271E"/>
<path d="M74.9495 9.25999C74.9495 11.0733 74.4695 12.4733 73.5095 13.46C72.5629 14.4467 71.2695 14.94 69.6295 14.94C68.6162 14.94 67.7095 14.72 66.9095 14.28C66.1229 13.84 65.5029 13.2 65.0495 12.36C64.5962 11.5067 64.3695 10.4733 64.3695 9.25999C64.3695 7.44666 64.8429 6.05333 65.7895 5.07999C66.7362 4.10666 68.0362 3.61999 69.6895 3.61999C70.7162 3.61999 71.6229 3.83999 72.4095 4.27999C73.1962 4.71999 73.8162 5.35999 74.2695 6.19999C74.7229 7.03999 74.9495 8.05999 74.9495 9.25999ZM67.4095 9.25999C67.4095 10.34 67.5829 11.16 67.9295 11.72C68.2895 12.2667 68.8695 12.54 69.6695 12.54C70.4562 12.54 71.0229 12.2667 71.3695 11.72C71.7295 11.16 71.9095 10.34 71.9095 9.25999C71.9095 8.17999 71.7295 7.37333 71.3695 6.83999C71.0229 6.29333 70.4495 6.01999 69.6495 6.01999C68.8629 6.01999 68.2895 6.29333 67.9295 6.83999C67.5829 7.37333 67.4095 8.17999 67.4095 9.25999Z" fill="#1A271E"/>
<path d="M81.5923 3.61999C82.379 3.61999 83.1123 3.72666 83.7923 3.93999C84.4857 4.13999 85.039 4.45332 85.4523 4.87999C85.879 5.30666 86.0923 5.85332 86.0923 6.51999C86.0923 7.17333 85.8923 7.69333 85.4923 8.07999C85.0923 8.46666 84.5657 8.74666 83.9123 8.91999V9.01999C84.379 9.12666 84.799 9.27999 85.1723 9.47999C85.5457 9.66666 85.839 9.92666 86.0523 10.26C86.279 10.58 86.3923 11.0133 86.3923 11.56C86.3923 12.16 86.199 12.72 85.8123 13.24C85.439 13.7467 84.8523 14.16 84.0523 14.48C83.2523 14.7867 82.239 14.94 81.0123 14.94C79.199 14.94 77.799 14.7133 76.8123 14.26V11.8C77.2657 12.0133 77.819 12.2067 78.4723 12.38C79.139 12.5533 79.8457 12.64 80.5923 12.64C81.4057 12.64 82.0923 12.5467 82.6523 12.36C83.2123 12.1733 83.4923 11.8467 83.4923 11.38C83.4923 10.5133 82.459 10.08 80.3923 10.08H79.2323V8.01999H80.3323C81.319 8.01999 82.079 7.93999 82.6123 7.77999C83.159 7.61999 83.4323 7.31999 83.4323 6.87999C83.4323 6.53333 83.259 6.27333 82.9123 6.09999C82.5657 5.91333 81.999 5.81999 81.2123 5.81999C80.6923 5.81999 80.119 5.87999 79.4923 5.99999C78.879 6.11999 78.3057 6.29332 77.7723 6.51999L76.8923 4.43999C77.519 4.19999 78.199 4.00666 78.9323 3.85999C79.679 3.69999 80.5657 3.61999 81.5923 3.61999Z" fill="#1A271E"/>
<path d="M98.8261 9.25999C98.8261 11.0733 98.3461 12.4733 97.3861 13.46C96.4394 14.4467 95.1461 14.94 93.5061 14.94C92.4928 14.94 91.5861 14.72 90.7861 14.28C89.9994 13.84 89.3794 13.2 88.9261 12.36C88.4728 11.5067 88.2461 10.4733 88.2461 9.25999C88.2461 7.44666 88.7194 6.05333 89.6661 5.07999C90.6128 4.10666 91.9128 3.61999 93.5661 3.61999C94.5928 3.61999 95.4994 3.83999 96.2861 4.27999C97.0728 4.71999 97.6928 5.35999 98.1461 6.19999C98.5994 7.03999 98.8261 8.05999 98.8261 9.25999ZM91.2861 9.25999C91.2861 10.34 91.4594 11.16 91.8061 11.72C92.1661 12.2667 92.7461 12.54 93.5461 12.54C94.3328 12.54 94.8994 12.2667 95.2461 11.72C95.6061 11.16 95.7861 10.34 95.7861 9.25999C95.7861 8.17999 95.6061 7.37333 95.2461 6.83999C94.8994 6.29333 94.3261 6.01999 93.5261 6.01999C92.7394 6.01999 92.1661 6.29333 91.8061 6.83999C91.4594 7.37333 91.2861 8.17999 91.2861 9.25999Z" fill="#1A271E"/>
<path d="M111.169 6.67999C111.169 7.26666 110.982 7.76666 110.609 8.17999C110.249 8.59333 109.709 8.85999 108.989 8.97999V9.05999C109.749 9.15333 110.356 9.41999 110.809 9.85999C111.276 10.2867 111.509 10.8267 111.509 11.48C111.509 12.1067 111.342 12.6667 111.009 13.16C110.689 13.6533 110.176 14.04 109.469 14.32C108.762 14.6 107.836 14.74 106.689 14.74H101.489V3.81999H106.689C107.542 3.81999 108.302 3.91333 108.969 4.09999C109.649 4.27332 110.182 4.57332 110.569 4.99999C110.969 5.41333 111.169 5.97332 111.169 6.67999ZM108.149 6.91999C108.149 6.25332 107.622 5.91999 106.569 5.91999H104.469V8.07999H106.229C106.856 8.07999 107.329 7.99333 107.649 7.81999C107.982 7.63333 108.149 7.33332 108.149 6.91999ZM108.429 11.32C108.429 10.8933 108.256 10.5867 107.909 10.4C107.576 10.2 107.082 10.1 106.429 10.1H104.469V12.68H106.489C107.049 12.68 107.509 12.58 107.869 12.38C108.242 12.1667 108.429 11.8133 108.429 11.32Z" fill="#1A271E"/>
<path d="M123.79 3.83999C123.35 3.83999 122.96 3.94666 122.62 4.15999C122.287 4.36666 122.003 4.60999 121.77 4.88999C121.543 5.16999 121.37 5.42666 121.25 5.65999C121.13 5.88666 121.063 6.01999 121.05 6.05999L118.49 4.88999C118.503 4.80333 118.567 4.62999 118.68 4.36999C118.793 4.10333 118.973 3.79666 119.22 3.44999C119.467 3.10332 119.79 2.76666 120.19 2.43999C120.597 2.11333 121.097 1.84333 121.69 1.62999C122.283 1.40999 122.983 1.29999 123.79 1.29999C124.723 1.29999 125.497 1.43332 126.11 1.69999C126.73 1.96666 127.217 2.31666 127.57 2.74999C127.93 3.17666 128.187 3.63999 128.34 4.13999C128.493 4.63999 128.57 5.11999 128.57 5.57999C128.57 6.15333 128.453 6.70999 128.22 7.24999C127.993 7.78333 127.697 8.28999 127.33 8.76999C126.963 9.24333 126.57 9.67999 126.15 10.08C125.73 10.4733 125.327 10.82 124.94 11.12C124.56 11.4133 124.237 11.6467 123.97 11.82C123.703 11.9933 123.543 12.1 123.49 12.14H128.46V14.74H118.99V12.37C119.09 12.2967 119.317 12.1333 119.67 11.88C120.023 11.6267 120.447 11.31 120.94 10.93C121.44 10.55 121.957 10.1333 122.49 9.67999C123.03 9.21999 123.53 8.74666 123.99 8.25999C124.457 7.77333 124.837 7.29666 125.13 6.82999C125.423 6.36333 125.57 5.93333 125.57 5.53999C125.57 4.91999 125.413 4.48333 125.1 4.22999C124.793 3.96999 124.357 3.83999 123.79 3.83999Z" fill="#1A271E"/>
<path d="M138.277 1.53999V9.34999H139.807V11.96H138.277V14.74H135.297V11.96H129.857V9.58999L134.847 1.53999H138.277ZM135.297 9.34999V5.36999H135.277L132.867 9.34999H135.297Z" fill="#1A271E"/>
</svg>
