<svg width="119" height="69" viewBox="0 0 119 69" fill="none" xmlns="http://www.w3.org/2000/svg">
<path fill-rule="evenodd" clip-rule="evenodd" d="M85.6872 37.2896C85.9018 37.0327 86.2144 36.8845 86.5441 36.8845H106.087L103.102 33.2717H83.4346L77.2737 25.5588H96.7275L95.4321 23.9912H76.2879L69.9201 15.8435H88.6988L87.455 14.3385H68.648L62.0283 5.84504L80.4492 5.86107L77.9321 2.81519H57.9648L34.5986 31.2859C34.3843 31.5494 34.0681 31.7008 33.7352 31.7008H12.7067L15.2155 34.7842L36.4898 35.205L42.0897 42.5059H21.4982L22.6282 43.8947H43.1737L49.7863 52.0881H29.2947L30.4244 53.4766H50.7604L57.1735 62.0547H37.4039L40.7665 66.1874H61.5318L85.6872 37.2896ZM99.6858 25.5588L98.3902 23.9912H102.572L96.2374 15.8435H91.6563L90.4125 14.3385H94.9843L88.515 5.8681L83.4082 5.86365L79.3155 0.911667C79.1012 0.651493 78.7864 0.5 78.4548 0.5H57.4395C57.1066 0.5 56.7904 0.651481 56.5761 0.914946L33.2099 29.3856H10.2967C9.85909 29.3856 9.46068 29.6458 9.27497 30.0542C9.08926 30.4592 9.14999 30.9401 9.43048 31.2826L12.2314 34.7252L9.84509 34.678L16.1222 42.5059H18.5617L19.6915 43.8947H17.0527L23.4834 52.0881H26.3576L27.4873 53.4766H24.4472L31.2735 62.0547H34.4664L39.372 68.0844C39.5863 68.3478 39.9038 68.5 40.2386 68.5H62.0507C62.3804 68.5 62.693 68.3525 62.9076 68.0962L87.0629 39.1997H108.523C108.96 39.1997 109.361 38.9363 109.544 38.5279C109.731 38.1195 109.666 37.6387 109.384 37.2929L106.06 33.2717H109.789L103.841 25.5588H99.6858ZM59.9957 6.77044L82.0119 35.0765L76.5926 41.1866L59.7927 19.6144L48.5605 33.4693L65.1217 54.4257L59.7024 61.0914L38.2961 33.4101L59.9957 6.77044ZM15.0555 43.8947H7.24803L13.7739 52.0881H21.3156L15.0555 43.8947ZM14.7674 53.4766H22.3821L29.0384 62.0547H21.4966L14.7674 53.4766ZM13.9153 42.5059L7.72235 34.6517L0 34.5002L6.18688 42.5059H13.9153ZM111.751 23.9912L105.348 15.8435H98.0457L104.4 23.9912H111.751ZM119 33.2717L112.77 25.3513H105.519L111.716 33.2717H119ZM104.028 14.2627H96.9088L90.3444 5.86806H97.5247L104.028 14.2627Z" fill="#F8F9F8"/>
</svg>
