<svg width="140" height="20" viewBox="0 0 140 20" fill="none" xmlns="http://www.w3.org/2000/svg">
<path d="M0 14.78V0.5H11.3V14.78H8.28V3.02H3.02V14.78H0Z" fill="white"/>
<path d="M19.3623 3.66C20.869 3.66 22.0623 4.09333 22.9423 4.96C23.8223 5.81333 24.2623 7.03333 24.2623 8.62V10.06H17.2223C17.249 10.9 17.4957 11.56 17.9623 12.04C18.4423 12.52 19.1023 12.76 19.9423 12.76C20.6357 12.76 21.269 12.6933 21.8423 12.56C22.429 12.4133 23.029 12.1933 23.6423 11.9V14.2C23.0957 14.4667 22.529 14.66 21.9423 14.78C21.3557 14.9133 20.6423 14.98 19.8023 14.98C18.709 14.98 17.7423 14.78 16.9023 14.38C16.0623 13.9667 15.4023 13.3533 14.9223 12.54C14.4423 11.7133 14.2023 10.6667 14.2023 9.4C14.2023 8.13333 14.4157 7.07333 14.8423 6.22C15.2823 5.36667 15.889 4.72667 16.6623 4.3C17.4357 3.87333 18.3357 3.66 19.3623 3.66ZM19.3823 5.78C18.7957 5.78 18.3157 5.96667 17.9423 6.34C17.569 6.71333 17.349 7.29333 17.2823 8.08H21.4623C21.449 7.42667 21.269 6.88 20.9223 6.44C20.589 6 20.0757 5.78 19.3823 5.78Z" fill="white"/>
<path d="M32.9588 3.66C34.1854 3.66 35.1788 4.14 35.9388 5.1C36.6987 6.04667 37.0788 7.44667 37.0788 9.3C37.0788 11.1667 36.6854 12.58 35.8988 13.54C35.1121 14.5 34.1054 14.98 32.8787 14.98C32.0921 14.98 31.4654 14.84 30.9987 14.56C30.5321 14.2667 30.1521 13.94 29.8587 13.58H29.6987C29.8054 14.14 29.8587 14.6733 29.8587 15.18V19.58H26.8787V3.86H29.2987L29.7188 5.28H29.8587C30.1521 4.84 30.5454 4.46 31.0387 4.14C31.5321 3.82 32.1721 3.66 32.9588 3.66ZM31.9988 6.04C31.2254 6.04 30.6787 6.28667 30.3587 6.78C30.0387 7.26 29.8721 7.98667 29.8587 8.96V9.28C29.8587 10.3333 30.0121 11.1467 30.3188 11.72C30.6388 12.28 31.2121 12.56 32.0387 12.56C32.7188 12.56 33.2188 12.28 33.5387 11.72C33.8721 11.1467 34.0387 10.3267 34.0387 9.26C34.0387 7.11333 33.3587 6.04 31.9988 6.04Z" fill="white"/>
<path d="M44.235 3.66C45.7417 3.66 46.935 4.09333 47.815 4.96C48.695 5.81333 49.135 7.03333 49.135 8.62V10.06H42.095C42.1217 10.9 42.3683 11.56 42.835 12.04C43.315 12.52 43.975 12.76 44.815 12.76C45.5083 12.76 46.1417 12.6933 46.715 12.56C47.3017 12.4133 47.9017 12.1933 48.515 11.9V14.2C47.9683 14.4667 47.4017 14.66 46.815 14.78C46.2283 14.9133 45.515 14.98 44.675 14.98C43.5817 14.98 42.615 14.78 41.775 14.38C40.935 13.9667 40.275 13.3533 39.795 12.54C39.315 11.7133 39.075 10.6667 39.075 9.4C39.075 8.13333 39.2883 7.07333 39.715 6.22C40.155 5.36667 40.7617 4.72667 41.535 4.3C42.3083 3.87333 43.2083 3.66 44.235 3.66ZM44.255 5.78C43.6683 5.78 43.1883 5.96667 42.815 6.34C42.4417 6.71333 42.2217 7.29333 42.155 8.08H46.335C46.3217 7.42667 46.1417 6.88 45.795 6.44C45.4617 6 44.9483 5.78 44.255 5.78Z" fill="white"/>
<path d="M61.4314 6.72C61.4314 7.30667 61.2447 7.80667 60.8714 8.22C60.5114 8.63333 59.9714 8.9 59.2514 9.02V9.1C60.0114 9.19333 60.6181 9.46 61.0714 9.9C61.5381 10.3267 61.7714 10.8667 61.7714 11.52C61.7714 12.1467 61.6047 12.7067 61.2714 13.2C60.9514 13.6933 60.4381 14.08 59.7314 14.36C59.0247 14.64 58.0981 14.78 56.9514 14.78H51.7514V3.86H56.9514C57.8047 3.86 58.5647 3.95333 59.2314 4.14C59.9114 4.31333 60.4447 4.61333 60.8314 5.04C61.2314 5.45333 61.4314 6.01333 61.4314 6.72ZM58.4114 6.96C58.4114 6.29333 57.8847 5.96 56.8314 5.96H54.7314V8.12H56.4914C57.1181 8.12 57.5914 8.03333 57.9114 7.86C58.2447 7.67333 58.4114 7.37333 58.4114 6.96ZM58.6914 11.36C58.6914 10.9333 58.5181 10.6267 58.1714 10.44C57.8381 10.24 57.3447 10.14 56.6914 10.14H54.7314V12.72H56.7514C57.3114 12.72 57.7714 12.62 58.1314 12.42C58.5047 12.2067 58.6914 11.8533 58.6914 11.36Z" fill="white"/>
<path d="M74.4495 9.3C74.4495 11.1133 73.9695 12.5133 73.0095 13.5C72.0629 14.4867 70.7695 14.98 69.1295 14.98C68.1162 14.98 67.2095 14.76 66.4095 14.32C65.6229 13.88 65.0029 13.24 64.5495 12.4C64.0962 11.5467 63.8695 10.5133 63.8695 9.3C63.8695 7.48667 64.3429 6.09333 65.2895 5.12C66.2362 4.14667 67.5362 3.66 69.1895 3.66C70.2162 3.66 71.1229 3.88 71.9095 4.32C72.6962 4.76 73.3162 5.4 73.7695 6.24C74.2229 7.08 74.4495 8.1 74.4495 9.3ZM66.9095 9.3C66.9095 10.38 67.0829 11.2 67.4295 11.76C67.7895 12.3067 68.3695 12.58 69.1695 12.58C69.9562 12.58 70.5229 12.3067 70.8695 11.76C71.2295 11.2 71.4095 10.38 71.4095 9.3C71.4095 8.22 71.2295 7.41333 70.8695 6.88C70.5229 6.33333 69.9495 6.06 69.1495 6.06C68.3629 6.06 67.7895 6.33333 67.4295 6.88C67.0829 7.41333 66.9095 8.22 66.9095 9.3Z" fill="white"/>
<path d="M81.0923 3.66C81.879 3.66 82.6123 3.76667 83.2923 3.98C83.9857 4.18 84.539 4.49333 84.9523 4.92C85.379 5.34667 85.5923 5.89333 85.5923 6.56C85.5923 7.21333 85.3923 7.73333 84.9923 8.12C84.5923 8.50667 84.0657 8.78667 83.4123 8.96V9.06C83.879 9.16667 84.299 9.32 84.6723 9.52C85.0457 9.70667 85.339 9.96667 85.5523 10.3C85.779 10.62 85.8923 11.0533 85.8923 11.6C85.8923 12.2 85.699 12.76 85.3123 13.28C84.939 13.7867 84.3523 14.2 83.5523 14.52C82.7523 14.8267 81.739 14.98 80.5123 14.98C78.699 14.98 77.299 14.7533 76.3123 14.3V11.84C76.7657 12.0533 77.319 12.2467 77.9723 12.42C78.639 12.5933 79.3457 12.68 80.0923 12.68C80.9057 12.68 81.5923 12.5867 82.1523 12.4C82.7123 12.2133 82.9923 11.8867 82.9923 11.42C82.9923 10.5533 81.959 10.12 79.8923 10.12H78.7323V8.06H79.8323C80.819 8.06 81.579 7.98 82.1123 7.82C82.659 7.66 82.9323 7.36 82.9323 6.92C82.9323 6.57333 82.759 6.31333 82.4123 6.14C82.0657 5.95333 81.499 5.86 80.7123 5.86C80.1923 5.86 79.619 5.92 78.9923 6.04C78.379 6.16 77.8057 6.33333 77.2723 6.56L76.3923 4.48C77.019 4.24 77.699 4.04667 78.4323 3.9C79.179 3.74 80.0657 3.66 81.0923 3.66Z" fill="white"/>
<path d="M98.3261 9.3C98.3261 11.1133 97.8461 12.5133 96.8861 13.5C95.9394 14.4867 94.6461 14.98 93.0061 14.98C91.9928 14.98 91.0861 14.76 90.2861 14.32C89.4994 13.88 88.8794 13.24 88.4261 12.4C87.9728 11.5467 87.7461 10.5133 87.7461 9.3C87.7461 7.48667 88.2194 6.09333 89.1661 5.12C90.1128 4.14667 91.4128 3.66 93.0661 3.66C94.0928 3.66 94.9994 3.88 95.7861 4.32C96.5728 4.76 97.1928 5.4 97.6461 6.24C98.0994 7.08 98.3261 8.1 98.3261 9.3ZM90.7861 9.3C90.7861 10.38 90.9594 11.2 91.3061 11.76C91.6661 12.3067 92.2461 12.58 93.0461 12.58C93.8328 12.58 94.3994 12.3067 94.7461 11.76C95.1061 11.2 95.2861 10.38 95.2861 9.3C95.2861 8.22 95.1061 7.41333 94.7461 6.88C94.3994 6.33333 93.8261 6.06 93.0261 6.06C92.2394 6.06 91.6661 6.33333 91.3061 6.88C90.9594 7.41333 90.7861 8.22 90.7861 9.3Z" fill="white"/>
<path d="M110.669 6.72C110.669 7.30667 110.482 7.80667 110.109 8.22C109.749 8.63333 109.209 8.9 108.489 9.02V9.1C109.249 9.19333 109.856 9.46 110.309 9.9C110.776 10.3267 111.009 10.8667 111.009 11.52C111.009 12.1467 110.842 12.7067 110.509 13.2C110.189 13.6933 109.676 14.08 108.969 14.36C108.262 14.64 107.336 14.78 106.189 14.78H100.989V3.86H106.189C107.042 3.86 107.802 3.95333 108.469 4.14C109.149 4.31333 109.682 4.61333 110.069 5.04C110.469 5.45333 110.669 6.01333 110.669 6.72ZM107.649 6.96C107.649 6.29333 107.122 5.96 106.069 5.96H103.969V8.12H105.729C106.356 8.12 106.829 8.03333 107.149 7.86C107.482 7.67333 107.649 7.37333 107.649 6.96ZM107.929 11.36C107.929 10.9333 107.756 10.6267 107.409 10.44C107.076 10.24 106.582 10.14 105.929 10.14H103.969V12.72H105.989C106.549 12.72 107.009 12.62 107.369 12.42C107.742 12.2067 107.929 11.8533 107.929 11.36Z" fill="white"/>
<path d="M123.29 3.88C122.85 3.88 122.46 3.98667 122.12 4.2C121.787 4.40667 121.503 4.65 121.27 4.93C121.043 5.21 120.87 5.46667 120.75 5.7C120.63 5.92667 120.563 6.06 120.55 6.1L117.99 4.93C118.003 4.84333 118.067 4.67 118.18 4.41C118.293 4.14333 118.473 3.83667 118.72 3.49C118.967 3.14333 119.29 2.80667 119.69 2.48C120.097 2.15333 120.597 1.88333 121.19 1.67C121.783 1.45 122.483 1.34 123.29 1.34C124.223 1.34 124.997 1.47333 125.61 1.74C126.23 2.00667 126.717 2.35667 127.07 2.79C127.43 3.21667 127.687 3.68 127.84 4.18C127.993 4.68 128.07 5.16 128.07 5.62C128.07 6.19333 127.953 6.75 127.72 7.29C127.493 7.82333 127.197 8.33 126.83 8.81C126.463 9.28333 126.07 9.72 125.65 10.12C125.23 10.5133 124.827 10.86 124.44 11.16C124.06 11.4533 123.737 11.6867 123.47 11.86C123.203 12.0333 123.043 12.14 122.99 12.18H127.96V14.78H118.49V12.41C118.59 12.3367 118.817 12.1733 119.17 11.92C119.523 11.6667 119.947 11.35 120.44 10.97C120.94 10.59 121.457 10.1733 121.99 9.72C122.53 9.26 123.03 8.78667 123.49 8.3C123.957 7.81333 124.337 7.33667 124.63 6.87C124.923 6.40333 125.07 5.97333 125.07 5.58C125.07 4.96 124.913 4.52333 124.6 4.27C124.293 4.01 123.857 3.88 123.29 3.88Z" fill="white"/>
<path d="M137.777 1.58V9.39H139.307V12H137.777V14.78H134.797V12H129.357V9.63L134.347 1.58H137.777ZM134.797 9.39V5.41H134.777L132.367 9.39H134.797Z" fill="white"/>
</svg>
