<svg width="25" height="24" viewBox="0 0 25 24" fill="none" xmlns="http://www.w3.org/2000/svg">
<path d="M12.7396 2C10.6189 2.00265 8.58587 2.88729 7.0864 4.45986C5.58693 6.03243 4.74352 8.1645 4.74121 10.3883C4.74121 14.7833 11.2305 20.6625 11.9728 21.3192L12.7412 22L13.5097 21.3192C14.2503 20.6625 20.7412 14.7833 20.7412 10.3883C20.7389 8.16392 19.8951 6.03135 18.3949 4.45868C16.8947 2.88602 14.8608 2.00176 12.7396 2ZM12.7396 18.7025C10.3039 16.3758 7.12365 12.5958 7.12365 10.3883C7.12365 8.82643 7.71533 7.3285 8.76853 6.22406C9.82173 5.11963 11.2502 4.49917 12.7396 4.49917C14.2291 4.49917 15.6575 5.11963 16.7107 6.22406C17.7639 7.3285 18.3556 8.82643 18.3556 10.3883C18.3556 12.5917 15.1745 16.3733 12.7396 18.7025Z" fill="#303230"/>
<path d="M12.7396 12.815C14.055 12.815 15.1213 11.6968 15.1213 10.3175C15.1213 8.93817 14.055 7.82 12.7396 7.82C11.4243 7.82 10.358 8.93817 10.358 10.3175C10.358 11.6968 11.4243 12.815 12.7396 12.815Z" fill="#303230"/>
</svg>
