<svg width="25" height="24" viewBox="0 0 25 24" fill="none" xmlns="http://www.w3.org/2000/svg">
<path d="M12.0714 11.4877L10.5762 10.0879L8.74121 11.6808L10.6493 13.617C10.8326 13.7921 11.0528 13.9324 11.297 14.0298C11.5412 14.1271 11.8045 14.1796 12.0714 14.184H12.1028C12.632 14.1826 13.1393 13.9932 13.5148 13.6569L17.7412 9.62431L15.9385 8L12.0714 11.4877Z" fill="#303230"/>
<path d="M12.6788 22L12.254 21.8023C11.9468 21.6571 4.74121 18.2453 4.74121 11.9875V6.5849C4.74126 6.05947 4.89983 5.54738 5.19446 5.12119C5.4891 4.69499 5.90485 4.3763 6.38281 4.21026L12.7412 2L19.1004 4.2111C19.5785 4.37657 19.9944 4.69503 20.289 5.12119C20.5835 5.54736 20.7418 6.05954 20.7412 6.5849V11.9875C20.7412 19.1122 13.4316 21.7347 13.1204 21.8431L12.6788 22ZM12.7412 4.6383L7.14121 6.5849V11.9875C7.14121 15.884 11.4164 18.5348 12.8028 19.2908C14.1964 18.6842 18.3412 16.4998 18.3412 11.9875V6.5849L12.7412 4.6383Z" fill="#303230"/>
</svg>
