<svg width="25" height="24" viewBox="0 0 25 24" fill="none" xmlns="http://www.w3.org/2000/svg">
<path d="M15.2412 15.0205C15.2412 14.0812 14.868 13.1803 14.2038 12.5161C13.5396 11.8519 12.6387 11.4788 11.6994 11.4788C10.76 11.4788 9.85917 11.8519 9.19496 12.5161C8.53074 13.1803 8.15759 14.0812 8.15759 15.0205V15.3331H10.6577V15.0205C10.6577 14.7443 10.7674 14.4793 10.9628 14.284C11.1581 14.0886 11.4231 13.9788 11.6994 13.9788C11.9757 13.9788 12.2406 14.0886 12.436 14.284C12.6313 14.4793 12.7411 14.7443 12.7411 15.0205C12.7411 15.5414 11.7477 16.2864 10.9494 16.8848C9.64098 17.8665 8.15759 18.979 8.15759 20.7499C8.15759 21.0814 8.28929 21.3994 8.52372 21.6338C8.75815 21.8682 9.0761 21.9999 9.40763 21.9999H15.2412V19.4999H11.6577C11.9161 19.2882 12.1952 19.0832 12.4536 18.8857C13.7578 17.904 15.2412 16.7914 15.2412 15.0205Z" fill="#303230"/>
<path d="M20.2414 11.9998V16.1666H19.6164C19.3402 16.1661 19.0755 16.0562 18.8803 15.861C18.685 15.6657 18.5751 15.401 18.5747 15.1249V11.9998H16.0746V15.1249C16.0757 16.0639 16.4492 16.9641 17.1132 17.6281C17.7771 18.292 18.6774 18.6655 19.6164 18.6666H20.2414V22.0001H22.7415V11.9998H20.2414Z" fill="#303230"/>
<path d="M19.8005 4.94023C18.069 3.1986 15.7562 2.15642 13.3045 2.01301C10.8528 1.86961 8.43429 2.63506 6.51154 4.16294C4.58879 5.69083 3.29678 7.87391 2.88262 10.2946C2.46845 12.7153 2.96122 15.2038 4.26667 17.284L6.09339 15.4564C5.49598 14.3143 5.20355 13.0373 5.2444 11.749C5.28526 10.4607 5.65802 9.20475 6.3266 8.10277C6.99518 7.00079 7.93694 6.09008 9.0607 5.4588C10.1845 4.82752 11.4522 4.49705 12.7411 4.49938C14.728 4.50632 16.6314 5.29938 18.0355 6.70529L16.0746 8.66619H20.9989C21.1183 8.6663 21.2366 8.64286 21.347 8.5972C21.4573 8.55155 21.5576 8.48458 21.642 8.40014C21.7265 8.31569 21.7935 8.21541 21.8391 8.10506C21.8848 7.9947 21.9082 7.87642 21.9081 7.75699V2.83266L19.8005 4.94023Z" fill="#303230"/>
</svg>
