<svg width="40" height="40" viewBox="0 0 40 40" fill="none" xmlns="http://www.w3.org/2000/svg">
<rect width="40" height="40" fill="#CB2D2D"/>
<g clip-path="url(#clip0_478_5977)">
<path d="M23.2897 19.9541C23.2897 19.9541 23.6069 18.8893 22.6462 16.5039C21.6765 14.1185 22.0571 12.7979 22.3834 11.8405C22.3834 11.8405 20.2989 13.3839 21.6039 15.497C22.909 17.6182 22.9906 18.6417 22.8909 19.5331C22.8003 20.4246 23.2897 19.9541 23.2897 19.9541Z" fill="white"/>
<path d="M21.8036 15.2658C22.6374 16.9249 23.4893 18.683 22.8911 19.855C22.8821 19.7725 22.8821 19.6734 22.9002 19.5331C22.9908 18.6417 22.9093 17.6182 21.6132 15.4969C20.3081 13.3757 22.3927 11.8405 22.3927 11.8405C22.3927 11.8405 20.9244 13.5077 21.8036 15.2658Z" fill="white"/>
<path d="M23.29 19.9541C23.29 19.9541 22.9003 17.5109 20.0363 15.1998C17.1814 12.8887 16.9549 10.0989 16.9549 10.0989C16.9549 10.0989 15.3507 12.5255 17.5983 14.0608C19.846 15.596 22.2206 17.4779 22.719 19.5331C23.2175 21.5966 23.29 19.9541 23.29 19.9541Z" fill="white"/>
<path d="M17.6255 13.5573C18.9034 14.7707 22.3746 16.7681 22.6828 19.4011C22.1209 17.3954 19.7916 15.5713 17.5983 14.0691C15.3507 12.5338 16.9549 10.1072 16.9549 10.1072C16.9549 10.1072 16.2661 12.2697 17.6255 13.5573Z" fill="white"/>
<path d="M11.4353 14.069C11.4353 14.069 21.6042 18.848 22.7552 22.3064C22.7552 22.3147 27.4862 17.6264 11.4353 14.069Z" fill="white"/>
<path d="M22.7552 22.3147C22.7552 22.3147 23.435 19.5496 20.0453 17.5851C16.6557 15.6207 11.4353 14.069 11.4353 14.069C27.4862 17.6264 22.7552 22.3147 22.7552 22.3147Z" fill="white"/>
<path d="M7.91883 8.3407C7.91883 8.3407 4.23011 10.2721 5.75273 12.7731C7.27534 15.274 16.3748 17.6924 16.3748 17.6924C16.3748 17.6924 5.87055 13.4994 7.91883 8.3407Z" fill="white"/>
<path d="M5.75273 12.7731C4.23011 10.2721 7.91883 8.3407 7.91883 8.3407C7.91883 8.3407 5.4627 10.9242 7.16658 13.0867C8.84327 15.2162 16.3748 17.6842 16.3748 17.6842C16.3748 17.6842 7.27534 15.274 5.75273 12.7731Z" fill="white"/>
<path d="M5.41707 12.5585C5.41707 12.5585 3.00626 15.4226 5.29924 17.0816C7.59223 18.7324 16.3745 17.8327 16.3745 17.8327C16.3745 17.8327 5.68896 17.6594 5.41707 12.5585Z" fill="white"/>
<path d="M5.29924 17.0816C3.00626 15.4308 5.41707 12.5585 5.41707 12.5585C5.41707 12.5585 4.32042 15.5794 6.6406 16.8918C8.92452 18.1712 16.3745 17.8327 16.3745 17.8327C16.3745 17.8327 7.60129 18.7324 5.29924 17.0816Z" fill="white"/>
<path d="M5.01881 17.4283C5.01881 17.4283 4.22125 20.6474 6.82238 21.2169C9.42352 21.7864 16.3206 17.9814 16.3206 17.9814C16.3206 17.9814 7.39336 21.5636 5.01881 17.4283Z" fill="white"/>
<path d="M6.82238 21.2169C4.22125 20.6474 5.01881 17.4283 5.01881 17.4283C5.01881 17.4283 5.38134 20.3172 7.85559 20.5896C10.2845 20.862 16.3206 17.9814 16.3206 17.9814C16.3206 17.9814 9.42352 21.7864 6.82238 21.2169Z" fill="white"/>
<path d="M6.43262 21.4067C6.43262 21.4067 7.04891 24.4359 9.50503 24.0645C11.9702 23.6848 16.3659 18.1134 16.3659 18.1134C16.3659 18.1134 10.1395 24.1718 6.43262 21.4067Z" fill="white"/>
<path d="M9.51407 24.0563C7.04888 24.436 6.44165 21.3985 6.44165 21.3985C6.44165 21.3985 7.91895 23.7592 10.1485 23.1731C12.3508 22.5954 16.3749 18.1052 16.3749 18.1052C16.3749 18.1052 11.9793 23.6849 9.51407 24.0563Z" fill="white"/>
<path d="M32.1991 8.3407C32.1991 8.3407 35.8878 10.2721 34.3652 12.7731C32.8426 15.274 23.7432 17.6924 23.7432 17.6924C23.7432 17.6924 34.2474 13.4994 32.1991 8.3407Z" fill="white"/>
<path d="M34.3652 12.7731C35.8878 10.2721 32.1991 8.3407 32.1991 8.3407C32.1991 8.3407 34.6552 10.9242 32.9514 13.0867C31.2747 15.2162 23.7432 17.6842 23.7432 17.6842C23.7432 17.6842 32.8426 15.274 34.3652 12.7731Z" fill="white"/>
<path d="M34.7006 12.5585C34.7006 12.5585 37.1114 15.4226 34.8184 17.0816C32.5254 18.7324 23.7432 17.8327 23.7432 17.8327C23.7432 17.8327 34.4287 17.6594 34.7006 12.5585Z" fill="white"/>
<path d="M34.8184 17.0816C37.1114 15.4308 34.7006 12.5585 34.7006 12.5585C34.7006 12.5585 35.7972 15.5794 33.477 16.8918C31.1931 18.1712 23.7432 17.8327 23.7432 17.8327C23.7432 17.8327 32.5254 18.7324 34.8184 17.0816Z" fill="white"/>
<path d="M35.0991 17.4283C35.0991 17.4283 35.8967 20.6474 33.2956 21.2169C30.6944 21.7864 23.7974 17.9814 23.7974 17.9814C23.7974 17.9814 32.7337 21.5636 35.0991 17.4283Z" fill="white"/>
<path d="M33.2956 21.2169C35.8967 20.6474 35.0991 17.4283 35.0991 17.4283C35.0991 17.4283 34.7366 20.3172 32.2624 20.5896C29.8334 20.862 23.7974 17.9814 23.7974 17.9814C23.7974 17.9814 30.7035 21.7864 33.2956 21.2169Z" fill="white"/>
<path d="M33.6854 21.4067C33.6854 21.4067 33.0691 24.4359 30.613 24.0645C28.1478 23.6848 23.7522 18.1134 23.7522 18.1134C23.7522 18.1134 29.9786 24.1718 33.6854 21.4067Z" fill="white"/>
<path d="M30.604 24.0563C33.0692 24.436 33.6764 21.3985 33.6764 21.3985C33.6764 21.3985 32.1991 23.7592 29.9696 23.1731C27.7672 22.5954 23.7432 18.1052 23.7432 18.1052C23.7432 18.1052 28.1388 23.6849 30.604 24.0563Z" fill="white"/>
<path d="M18.6132 21.9432C18.6132 21.9432 12.1783 31.4105 8.68898 31.7572C8.67992 31.7572 12.2418 37.8816 18.6132 21.9432Z" fill="white"/>
<path d="M8.68018 31.7572C8.68018 31.7572 11.1726 33.1603 13.6649 30.0899C16.1573 27.0194 18.6044 21.9432 18.6044 21.9432C12.242 37.8816 8.68018 31.7572 8.68018 31.7572Z" fill="white"/>
<path d="M19.1663 23.5032C19.1663 23.5032 18.3234 30.7171 16.6467 32.2111C16.6377 32.2028 20.0092 33.9692 19.1663 23.5032Z" fill="white"/>
<path d="M15.1875 33.5483C15.1875 33.5483 17.0817 33.2842 17.9427 30.4118C18.7946 27.5312 19.1481 23.5033 19.1481 23.5033C18.8581 35.5871 15.1875 33.5483 15.1875 33.5483Z" fill="white"/>
<path d="M20.5528 32.5166C20.5528 32.5166 24.1871 32.3267 24.1146 29.0747C24.0421 25.8144 18.1782 19.0214 18.1782 19.0214C18.1782 19.0214 24.3412 28.2823 20.5528 32.5166Z" fill="white"/>
<path d="M24.1239 29.0747C24.1964 32.335 20.562 32.5166 20.562 32.5166C20.562 32.5166 23.5438 31.0804 23.1903 28.0759C22.8459 25.121 18.1965 19.0214 18.1965 19.0214C18.1965 19.0214 24.0513 25.8144 24.1239 29.0747Z" fill="white"/>
<path fill-rule="evenodd" clip-rule="evenodd" d="M15.4865 7.20996C14.3627 10.1649 14.6618 12.6493 16.3928 14.655C13.2479 12.5503 12.9398 10.0658 15.4865 7.20996Z" fill="white"/>
<path fill-rule="evenodd" clip-rule="evenodd" d="M19.2206 5.60876C18.6134 8.43987 18.7947 11.2545 19.7554 14.0525C17.6618 11.1389 17.4896 8.32431 19.2206 5.60876Z" fill="white"/>
</g>
<defs>
<clipPath id="clip0_478_5977">
<rect width="32" height="28" fill="white" transform="translate(4 6)"/>
</clipPath>
</defs>
</svg>
